<svg xmlns="http://www.w3.org/2000/svg" viewBox="0 0 60 60"><defs><style>.cls-1{fill:none;}.cls-2{fill:#ef3139;}</style></defs><g id="Layer_2" data-name="Layer 2"><g id="Layer_1-2" data-name="Layer 1"><rect class="cls-1" width="60" height="60"/><path class="cls-2" d="M28.75,40.17a.94.94,0,0,1-1.87,0V21.43a5.75,5.75,0,0,1,.95-3.36,3.36,3.36,0,0,1,1-1,2.8,2.8,0,0,1,1.54-.44,2.77,2.77,0,0,1,1.53.44,3.36,3.36,0,0,1,1,1,5.68,5.68,0,0,1,1,3.36V40.17a.94.94,0,0,1-1.88,0V21.44a4.51,4.51,0,0,0-.52-2.17,1.81,1.81,0,0,0-.55-.58.88.88,0,0,0-1.09,0,1.81,1.81,0,0,0-.55.58,4.75,4.75,0,0,0-.52,2.17V40.17Z"/><path class="cls-2" d="M25.23,39.78a.94.94,0,1,1-1.87,0V21.12a8.89,8.89,0,0,1,1.34-4.8,7,7,0,0,1,2.95-2.78,6.28,6.28,0,0,1,5.8.16c2.13,1.2,3.75,3.7,3.72,7.44V39.78a.94.94,0,1,1-1.87,0V21.18c-.15-3.2-1.36-5.09-2.9-5.88l0,0a4.08,4.08,0,0,0-2-.42,4.73,4.73,0,0,0-2.07.57,5.5,5.5,0,0,0-2,1.84,8.67,8.67,0,0,0-1.08,3.94V39.78Z"/><path class="cls-2" d="M30.36,36.11a29.89,29.89,0,0,1,7.73.91c2.33.65,3.78,1.7,3.78,3s-1.45,2.34-3.78,3a30.38,30.38,0,0,1-7.73.9,30.29,30.29,0,0,1-7.72-.9c-2.34-.66-3.78-1.71-3.78-3s1.44-2.34,3.78-3a29.81,29.81,0,0,1,7.72-.91Zm7.22,2.71A28.1,28.1,0,0,0,30.36,38a28.15,28.15,0,0,0-7.22.83c-1.49.41-2.41.84-2.41,1.19s.92.78,2.41,1.2a28.15,28.15,0,0,0,7.22.83,28.15,28.15,0,0,0,7.22-.83C39.07,40.79,40,40.36,40,40S39.07,39.23,37.58,38.82Z"/><path class="cls-2" d="M40.06,39.84a.93.93,0,1,1,1.83.34,39.7,39.7,0,0,1-2.47,8.29A35.83,35.83,0,0,1,35.16,56a.91.91,0,0,1-.75.38h-8a1,1,0,0,1-.73-.35,30.24,30.24,0,0,1-4.51-7.6,36.53,36.53,0,0,1-2.25-8.27.93.93,0,0,1,.78-1.06.94.94,0,0,1,1.07.78,34.3,34.3,0,0,0,2.13,7.84,28.32,28.32,0,0,0,4,6.78h7.13a35.22,35.22,0,0,0,3.77-6.74,39.29,39.29,0,0,0,2.35-7.91Z"/><path d="M16.22,23.82c-.16,0-.3-.21-.3-.47s.13-.46.29-.46L21,22.82c.16,0,.3.21.3.47s-.13.46-.29.47l-4.79.06Z"/><path class="cls-2" d="M16.22,24.06a.49.49,0,0,1-.41-.24,1,1,0,0,1-.14-.46h0a.91.91,0,0,1,.12-.45.5.5,0,0,1,.42-.26c.06,0,4.34-.06,4.79-.06a.48.48,0,0,1,.41.25.83.83,0,0,1,.13.46h0a.85.85,0,0,1-.12.46A.48.48,0,0,1,21,24c-.06,0-4.34.06-4.79.06Zm0-.51a0,0,0,0,1,0,0L21,23.51a0,0,0,0,1,0,0,.39.39,0,0,0,0-.2h0a.39.39,0,0,0,0-.2v0l-4.79.06a0,0,0,0,1,0,0,.39.39,0,0,0-.05.2h0A.39.39,0,0,0,16.21,23.55Z"/><path d="M14.5,19.68c-.17,0-.29-.23-.27-.49s.16-.46.33-.45l7,.45c.16,0,.28.22.27.48s-.16.46-.33.45l-6.95-.44Z"/><path class="cls-2" d="M14.5,19.92h0a.5.5,0,0,1-.4-.28.91.91,0,0,1-.09-.45h0a.93.93,0,0,1,.15-.46.49.49,0,0,1,.43-.22l7,.44a.47.47,0,0,1,.39.28.81.81,0,0,1,.1.45v0a.93.93,0,0,1-.15.45.49.49,0,0,1-.43.22Zm0-.51a0,0,0,0,1,0,0l7,.45s0,0,0,0a.33.33,0,0,0,.07-.18h0a.41.41,0,0,0,0-.21,0,0,0,0,1,0,0l-7-.44s0,0,0,0a.26.26,0,0,0-.06.18h0a.41.41,0,0,0,0,.21Z"/><path d="M13.48,12.75c-.15-.06-.19-.3-.1-.54s.3-.38.46-.32l9,3.61c.15.06.19.3.1.54s-.3.38-.45.32Z"/><path class="cls-2" d="M13.39,13a.52.52,0,0,1-.29-.39.79.79,0,0,1,.06-.47h0a.81.81,0,0,1,.29-.38.48.48,0,0,1,.47-.08l9,3.61a.52.52,0,0,1,.29.39.88.88,0,0,1-.05.47h0a.76.76,0,0,1-.29.38.48.48,0,0,1-.47.08l-9-3.61Zm.19-.45,9,3.61a0,0,0,0,1,0,0,.37.37,0,0,0,.12-.17h0a.38.38,0,0,0,0-.2s0,0,0,0l-9-3.61v0a.37.37,0,0,0-.12.17h0a.41.41,0,0,0,0,.21S13.57,12.53,13.58,12.53Z"/><path d="M22.86,4.11c-.07-.13.07-.31.31-.4s.49,0,.56.08l3.78,7.57c.07.14-.08.32-.32.4s-.49.05-.55-.08Z"/><path class="cls-2" d="M22.63,4.2v0a.44.44,0,0,1,.07-.41A.78.78,0,0,1,23,3.53l.11,0a1,1,0,0,1,.46-.06.52.52,0,0,1,.4.26c1.09,2.18,3,5.46,3.8,7.61a.42.42,0,0,1-.07.4.76.76,0,0,1-.29.24l-.11.05a1,1,0,0,1-.46,0,.49.49,0,0,1-.4-.25ZM23.2,4a.35.35,0,0,0-.11.07l3.77,7.53h0a.45.45,0,0,0,.22,0l.06,0a.29.29,0,0,0,.1-.08L23.51,3.9s0,0,0,0a.5.5,0,0,0-.23,0Z"/><path d="M36.51,3.77c.07-.14.31-.18.56-.09s.39.26.33.39L33.79,11.7c-.07.13-.31.17-.56.09s-.39-.26-.32-.39Z"/><path class="cls-2" d="M36.29,3.66a.53.53,0,0,1,.39-.26.92.92,0,0,1,.46.05l.11,0a.8.8,0,0,1,.3.23.42.42,0,0,1,.08.41C36.74,6.47,35.12,9.45,34,11.8a.5.5,0,0,1-.39.26,1,1,0,0,1-.47,0l-.09,0a.86.86,0,0,1-.31-.24.41.41,0,0,1-.08-.41C33.68,8.86,35.13,6.12,36.29,3.66Zm.47.22s0,0,0,0l-3.59,7.59a.35.35,0,0,0,.11.08l.05,0a.48.48,0,0,0,.23,0s0,0,0,0L37.15,4A.24.24,0,0,0,37,3.93l0,0a.5.5,0,0,0-.23,0Z"/><path d="M44,22.89c.16,0,.29.21.29.46s-.14.47-.31.47l-4.78-.06c-.17,0-.3-.22-.29-.47s.14-.47.3-.47Z"/><path class="cls-2" d="M44,22.64h0a.48.48,0,0,1,.41.25.88.88,0,0,1,.12.46h0a.86.86,0,0,1-.13.46.5.5,0,0,1-.42.24c-1.59,0-3.19-.06-4.78-.06a.51.51,0,0,1-.42-.25,1,1,0,0,1-.12-.46h0a.82.82,0,0,1,.13-.45.49.49,0,0,1,.42-.25l4.79.06Zm0,.49-4.79-.06v0a.39.39,0,0,0,0,.2h0a.39.39,0,0,0,0,.2,0,0,0,0,1,0,0l4.79.06a0,0,0,0,1,0,0,.39.39,0,0,0,0-.2h0a.39.39,0,0,0,0-.2,0,0,0,0,1,0,0Z"/><path d="M45.6,18.74c.16,0,.31.19.33.45s-.11.48-.27.49l-6.95.44c-.17,0-.32-.19-.33-.45s.1-.47.27-.48l7-.45Z"/><path class="cls-2" d="M45.58,18.5a.51.51,0,0,1,.44.22.93.93,0,0,1,.15.46h0a.81.81,0,0,1-.1.45.49.49,0,0,1-.4.28l-7,.44a.49.49,0,0,1-.43-.22.93.93,0,0,1-.15-.45v0a.91.91,0,0,1,.1-.45.5.5,0,0,1,.4-.28Zm0,.51s0,0,0,0l-7,.44a0,0,0,0,1,0,0,.41.41,0,0,0,0,.21h0a.42.42,0,0,0,.06.18v0l7-.45a0,0,0,0,1,0,0,.42.42,0,0,0,0-.21h0A.26.26,0,0,0,45.62,19Z"/><path d="M46.16,12c.16-.06.36.08.46.32s.05.49-.1.55l-8.81,3.54c-.15.06-.35-.08-.45-.32s0-.48.1-.54Z"/><path class="cls-2" d="M46.08,11.72a.5.5,0,0,1,.47.08.86.86,0,0,1,.29.38h0a.87.87,0,0,1,0,.47.5.5,0,0,1-.29.38L37.8,16.59a.5.5,0,0,1-.48-.08.82.82,0,0,1-.29-.38h0a.88.88,0,0,1-.05-.47.48.48,0,0,1,.29-.39Zm.19.48v0l-8.81,3.54s0,0,0,0a.36.36,0,0,0,0,.2h0a.48.48,0,0,0,.13.17,0,0,0,0,1,0,0l8.81-3.55v0a.36.36,0,0,0,0-.2h0a.34.34,0,0,0-.12-.16Z"/></g></g></svg>