<?xml version="1.0" encoding="utf-8"?>
<!-- Generator: Adobe Illustrator 26.0.1, SVG Export Plug-In . SVG Version: 6.00 Build 0)  -->
<svg version="1.1" id="Layer_1" xmlns="http://www.w3.org/2000/svg" xmlns:xlink="http://www.w3.org/1999/xlink" x="0px" y="0px"
	 viewBox="0 0 100 125" style="enable-background:new 0 0 100 125;" xml:space="preserve">
<path d="M89.1,88h-0.5V22.6c0-0.3-0.2-0.7-0.5-0.8c-0.3-0.2-0.6-0.2-1-0.1L62.9,32.5c-0.4,0.2-0.6,0.5-0.6,0.9v5.9h-10V24.2
	c0-0.4-0.2-0.7-0.6-0.9L23.1,10.1c-0.3-0.1-0.7-0.1-1,0.1c-0.3,0.2-0.5,0.5-0.5,0.8v35.8h-9.3c-0.6,0-1,0.4-1,1V88h-0.5
	c-0.6,0-1,0.4-1,1s0.4,1,1,1h78.2c0.6,0,1-0.4,1-1S89.6,88,89.1,88z M64.4,34.1l22.2-10V88H74.2V40.4c0-0.6-0.4-1-1-1h-8.9V34.1z
	 M72.2,41.4V88h-4.6v-7.5c0-2.9-2.4-5.3-5.2-5.3s-5.2,2.4-5.2,5.3V88h-4.7V41.4H72.2z M65.6,88h-6.5v-7.5c0-1.8,1.5-3.3,3.2-3.3
	s3.2,1.5,3.2,3.3V88z M23.7,12.6l26.7,12.3V88h-7.6V47.8c0-0.6-0.4-1-1-1H23.7V12.6z M13.4,59.2h27.4v8.1H13.4V59.2z M40.8,48.8v8.4
	H13.4v-8.4H40.8z M13.4,69.3h27.4V88h-8.6v-7.5c0-2.9-2.4-5.3-5.2-5.3c-2.9,0-5.2,2.4-5.2,5.3V88h-8.3V69.3z M30.2,88h-6.5v-7.5
	c0-1.8,1.5-3.3,3.2-3.3s3.2,1.5,3.2,3.3V88z"/>
<path d="M58.2,69.4h8.2c0.6,0,1-0.4,1-1s-0.4-1-1-1h-8.2c-0.6,0-1,0.4-1,1S57.7,69.4,58.2,69.4z"/>
<path d="M58.2,63.3h8.2c0.6,0,1-0.4,1-1s-0.4-1-1-1h-8.2c-0.6,0-1,0.4-1,1S57.7,63.3,58.2,63.3z"/>
<path d="M58.2,57.1h8.2c0.6,0,1-0.4,1-1s-0.4-1-1-1h-8.2c-0.6,0-1,0.4-1,1S57.7,57.1,58.2,57.1z"/>
<path d="M58.2,51h8.2c0.6,0,1-0.4,1-1s-0.4-1-1-1h-8.2c-0.6,0-1,0.4-1,1S57.7,51,58.2,51z"/>
<path d="M30.1,26.3c-0.6,0-1,0.4-1,1v4.5c0,0.6,0.4,1,1,1s1-0.4,1-1v-4.5C31.1,26.7,30.7,26.3,30.1,26.3z"/>
<path d="M37,26.3c-0.6,0-1,0.4-1,1v4.5c0,0.6,0.4,1,1,1s1-0.4,1-1v-4.5C38,26.7,37.6,26.3,37,26.3z"/>
<path d="M44,32.8c0.6,0,1-0.4,1-1v-4.5c0-0.6-0.4-1-1-1s-1,0.4-1,1v4.5C43,32.3,43.4,32.8,44,32.8z"/>
<path d="M30.1,35.8c-0.6,0-1,0.4-1,1v4.5c0,0.6,0.4,1,1,1s1-0.4,1-1v-4.5C31.1,36.2,30.7,35.8,30.1,35.8z"/>
<path d="M37,35.8c-0.6,0-1,0.4-1,1v4.5c0,0.6,0.4,1,1,1s1-0.4,1-1v-4.5C38,36.2,37.6,35.8,37,35.8z"/>
<path d="M44,42.3c0.6,0,1-0.4,1-1v-4.5c0-0.6-0.4-1-1-1s-1,0.4-1,1v4.5C43,41.9,43.4,42.3,44,42.3z"/>
<path d="M80.8,42.3c0.6,0,1-0.4,1-1v-4.5c0-0.6-0.4-1-1-1s-1,0.4-1,1v4.5C79.8,41.9,80.2,42.3,80.8,42.3z"/>
<path d="M80.8,51.9c0.6,0,1-0.4,1-1v-4.5c0-0.6-0.4-1-1-1s-1,0.4-1,1v4.5C79.8,51.5,80.2,51.9,80.8,51.9z"/>
<path d="M80.8,61.5c0.6,0,1-0.4,1-1V56c0-0.6-0.4-1-1-1s-1,0.4-1,1v4.5C79.8,61.1,80.2,61.5,80.8,61.5z"/>
<path d="M80.8,71.1c0.6,0,1-0.4,1-1v-4.5c0-0.6-0.4-1-1-1s-1,0.4-1,1v4.5C79.8,70.7,80.2,71.1,80.8,71.1z"/>
<path d="M80.8,80.8c0.6,0,1-0.4,1-1v-4.5c0-0.6-0.4-1-1-1s-1,0.4-1,1v4.5C79.8,80.3,80.2,80.8,80.8,80.8z"/>
</svg>
