<?xml version="1.0" encoding="utf-8"?>
<!-- Generator: Adobe Illustrator 26.0.1, SVG Export Plug-In . SVG Version: 6.00 Build 0)  -->
<svg version="1.1" id="Layer_1" xmlns="http://www.w3.org/2000/svg" xmlns:xlink="http://www.w3.org/1999/xlink" x="0px" y="0px"
	 viewBox="0 0 100 125" style="enable-background:new 0 0 100 125;" xml:space="preserve">
<style type="text/css">
	.st0{fill:#231F20;}
</style>
<path class="st0" d="M57.4,49.4l-0.4-1c-0.2-0.6,0.2-1.4,1-1.4h11.4c0.6,0,1-0.5,1-1V18.7c0-0.6-0.5-1-1-1h-41c-0.6,0-1,0.5-1,1V46
	c0,0.6,0.5,1,1,1h11.7c0.7,0,1.2,0.7,1,1.4l-0.4,1c-0.2,0.4-0.5,0.6-1,0.6H10.2c-0.6,0-1,0.5-1,1v6.4c0,0.6,0.5,1,1,1h3.4
	c0.6,0,1,0.5,1,1v34.6c0,0.6,0.5,1,1,1h0.6c0.6,0,1,0.5,1,1v0.4c0,0.6,0.5,1,1,1h1.2c0.6,0,1-0.5,1-1v-0.4c0-0.6,0.5-1,1-1h0.6
	c0.6,0,1-0.5,1-1v-24c0-0.6,0.5-1,1-1h30.7c0.6,0,1,0.5,1,1V94c0,0.6,0.5,1,1,1h2.2c0.6,0,1,0.5,1,1v0.4c0,0.6,0.5,1,1,1H62
	c0.6,0,1-0.5,1-1v-0.4c0-0.6,0.5-1,1-1h10.7c0.6,0,1,0.5,1,1v0.4c0,0.6,0.5,1,1,1H78c0.6,0,1-0.5,1-1v-0.4c0-0.6,0.5-1,1-1H82
	c0.6,0,1-0.5,1-1V59.5c0-0.6,0.5-1,1-1h4.2c0.6,0,1-0.5,1-1V51c0-0.6-0.5-1-1-1H58.4C57.9,50,57.6,49.8,57.4,49.4z M67.1,21.9v13.6
	c0,0.6-0.5,1-1,1H31.5c-0.6,0-1-0.5-1-1V21.9c0-0.6,0.5-1,1-1h34.6C66.7,20.9,67.1,21.4,67.1,21.9z M30.5,42.9v-2.2c0-0.6,0.5-1,1-1
	h34.6c0.6,0,1,0.5,1,1v2.2c0,0.6-0.5,1-1,1H31.5C31,43.9,30.5,43.4,30.5,42.9z M52.9,50h-7.6c-0.7,0-1.2-0.7-1-1.4l0.4-1
	c0.2-0.4,0.5-0.6,1-0.6h6.9c0.4,0,0.8,0.2,1,0.6l0.4,1C54.1,49.3,53.6,50,52.9,50z M54.2,66H23.5c-0.6,0-1-0.5-1-1v-2.4
	c0-0.6,0.5-1,1-1h30.6c0.6,0,1,0.5,1,1V65C55.2,65.5,54.7,66,54.2,66z M69.8,88.4h-1.6c-0.6,0-1-0.5-1-1v-1.1c0-0.6,0.5-1,1-1h1.6
	c0.6,0,1,0.5,1,1v1.2C70.7,87.9,70.2,88.4,69.8,88.4z M69.8,76.4h-1.6c-0.6,0-1-0.5-1-1v-1.1c0-0.6,0.5-1,1-1h1.6c0.6,0,1,0.5,1,1
	v1.2C70.7,75.9,70.2,76.4,69.8,76.4z M69.8,64.4h-1.6c-0.6,0-1-0.5-1-1v-1.1c0-0.6,0.5-1,1-1h1.6c0.6,0,1,0.5,1,1v1.2
	C70.7,63.9,70.2,64.4,69.8,64.4z M85.2,55.2h-3H55.1H22.5h-8h-1.3c-0.6,0-1-0.5-1-1l0,0c0-0.6,0.5-1,1-1h70.8c0.6,0,1,0.5,1,1
	L85.2,55.2L85.2,55.2z"/>
</svg>
