<?xml version="1.0" encoding="utf-8"?>
<!-- Generator: Adobe Illustrator 26.0.1, SVG Export Plug-In . SVG Version: 6.00 Build 0)  -->
<svg version="1.1" id="Layer_1" xmlns="http://www.w3.org/2000/svg" xmlns:xlink="http://www.w3.org/1999/xlink" x="0px" y="0px"
	 viewBox="0 0 128 160" style="enable-background:new 0 0 128 160;" xml:space="preserve">
<path d="M64,109c0.2,0,0.4,0,0.6,0c0.1,0,0.2,0,0.3,0c0.5,0,1.1,0,1.6-0.1c0.1,0,0.2,0,0.3-0.1c0.9-0.1,1.9-0.3,2.9-0.6
	c9-2.6,14-11,14.3-19.2c1-26.4-23.3-40.3-29.9-43.8c-0.3-0.2-0.5-0.2-0.7-0.2c-0.3,0-0.3,0.3,0.1,0.9c14.4,19.8,5.3,28.9,5.3,28.9
	c0.4-7.4-1.7-11-3.2-12.6c-0.3-0.3-0.5-0.4-0.7-0.4c-0.3,0-0.5,0.4-0.5,1.1c0.6,7-6.9,11.3-9.2,17.8C40.6,93.7,50.1,109,64,109z
	 M69.8,100.7c-0.3,1.7-1.6,3.6-3.8,4.1c-0.5,0.1-1,0.1-1.5,0.1c-2.1-0.1-3.3-1.5-3.8-2.3c-1-1.6-1.1-3.5-0.3-5
	c0.1-0.2,0.2-0.3,0.3-0.5c0.1,0.1,0.2,0.2,0.4,0.2c0.6,0.4,1.4,0.6,2.1,0.6c0.9,0,1.7-0.3,2.4-0.8c0.1-0.1,1.9-1.5,2.8-4.3
	C69.7,95.2,70.3,97.8,69.8,100.7z M48.9,82c0.7-2,2.2-3.9,3.8-6c0.7-0.9,1.4-1.8,2.1-2.7c0,0.4,0,0.8,0,1.2
	c-0.1,1.7,0.8,3.2,2.4,3.9c0.5,0.2,1.1,0.4,1.6,0.4c1,0,2.1-0.4,2.8-1.2c0.4-0.4,7.1-7.4,2.3-21c8.6,7.1,16.6,17.7,16.1,32.3
	c-0.2,4.5-2.2,9.5-6.2,12.8c0-0.1,0-0.2,0.1-0.3c1.8-11.3-8.4-18.4-11.1-20.2C62.5,81,62.4,81,62.3,81c-0.1,0-0.1,0.1,0,0.4
	c5.4,9.2,0.9,12.6,0.9,12.6c0.6-3.2-0.2-4.8-0.8-5.6c-0.1-0.1-0.2-0.2-0.3-0.2c-0.1,0-0.2,0.2-0.3,0.4c-0.1,3-3.7,4.5-5,7.2
	c-1.1,2.3-1.2,4.8-0.4,7.1c-2-1.2-3.7-2.8-5.1-4.8C48,93.3,47.1,87.3,48.9,82z"/>
<path d="M30,108c0,11,9,20,20,20h28c11,0,20-9,20-20V46c0-10.3-7.9-18.9-18-19.9V4h2c1.1,0,2-0.9,2-2s-0.9-2-2-2h-2H48h-2
	c-1.1,0-2,0.9-2,2s0.9,2,2,2h2v22.1c-10.1,1-18,9.6-18,19.9V108z M52,4h24v22H66v-2c0-1.1-0.9-2-2-2c-1.1,0-2,0.9-2,2v2H52V4z
	 M34,74h10.3c0.7-1,1.5-2,2.2-2.9c2.6-3.3,4.1-5.4,3.9-7.9c-0.2-2,0.6-3.3,1.2-4c0.8-0.9,2-1.4,3.2-1.4c0.3,0,0.6,0,1,0.1
	c-1.1-2.8-2.9-6-5.6-9.6c-1.6-2.2-1.1-4.1-0.7-5c0.7-1.4,2.2-2.3,3.8-2.3c0.8,0,1.7,0.2,2.6,0.7c9.7,5.2,24.5,15.6,29.9,32.3H94v4
	h-7c0.8,3.5,1.1,7.2,1,11.2c-0.4,10.8-7.3,20-17.2,22.8c-1.1,0.3-2.1,0.5-3.2,0.7c-0.2,0-0.3,0.1-0.5,0.1c-0.8,0.1-1.5,0.2-2.3,0.2
	c0,0,0,0,0,0c-0.1,0-0.2,0-0.3,0c-0.2,0-0.4,0-0.6,0c0,0,0,0,0,0c-7.5,0-14.5-3.7-19.1-10.2c-4.9-6.9-6.2-15.7-3.5-23.5
	c0.2-0.5,0.4-0.9,0.6-1.4c0,0,0,0,0,0H34V74z"/>
</svg>
