<?xml version="1.0" encoding="utf-8"?>
<!-- Generator: Adobe Illustrator 26.0.1, SVG Export Plug-In . SVG Version: 6.00 Build 0)  -->
<svg version="1.1" id="Layer_1" xmlns="http://www.w3.org/2000/svg" xmlns:xlink="http://www.w3.org/1999/xlink" x="0px" y="0px"
	 viewBox="0 0 1080 1080" style="enable-background:new 0 0 1080 1080;" xml:space="preserve">
<style type="text/css">
	.st0{fill-rule:evenodd;clip-rule:evenodd;}
	.st1{font-family:'Helvetica-Bold';}
	.st2{font-size:17.7151px;}
</style>
<g>
	<path class="st0" d="M-13.5-28.7l0.1,0.3l0.1-0.2l0.1,0.2h0v0.2h0v-0.2c0,0-0.1,0-0.1,0v0.2h0.2v0c-0.1,0-0.1,0-0.2,0v-0.2h-0.1
		v0.2c-0.1,0-0.1,0-0.2,0v0h0.2v-0.2c0,0-0.1,0-0.1,0v0.2h0v-0.2h0l0.1-0.2l0.1,0.2C-13.6-28.4-13.5-28.7-13.5-28.7z"/>
	<polygon class="st0" points="-13.5,-28.3 -13.5,-28.3 -13.5,-28.2 -13.5,-28.2 	"/>
	<polygon class="st0" points="-13.7,-28.4 -13.6,-28.4 -13.6,-28.3 -13.7,-28.3 	"/>
	<polygon class="st0" points="-13.3,-28.4 -13.4,-28.4 -13.4,-28.3 -13.3,-28.3 	"/>
	<polygon points="-13.7,-28.1 -13.3,-28.1 -13.3,-28.1 -13.7,-28.1 	"/>
</g>
<text transform="matrix(0.4301 0 0 1 -13.7495 25.0547)" class="st1 st2">Created by Andy Mc</text>
<text transform="matrix(0.4301 0 0 1 -13.7495 42.7695)" class="st1 st2">from the Noun Project</text>
</svg>
