<?xml version="1.0" encoding="utf-8"?>
<!-- Generator: Adobe Illustrator 26.0.1, SVG Export Plug-In . SVG Version: 6.00 Build 0)  -->
<svg version="1.1" id="Layer_1" xmlns="http://www.w3.org/2000/svg" xmlns:xlink="http://www.w3.org/1999/xlink" x="0px" y="0px"
	 viewBox="0 0 64 80" style="enable-background:new 0 0 64 80;" xml:space="preserve">
<g>
	<path d="M57.8,61c-1,0-1.4-0.3-2-0.8c-0.7-0.5-1.6-1.2-3.2-1.2s-2.5,0.7-3.2,1.2c-0.6,0.5-1,0.8-2,0.8c-0.9,0-1.4-0.3-2-0.8
		C44.8,59.7,44,59,42.3,59s-2.5,0.7-3.2,1.2c-0.6,0.5-1,0.8-2,0.8c-0.9,0-1.4-0.3-2-0.8C34.5,59.7,33.6,59,32,59s-2.5,0.7-3.2,1.2
		c-0.6,0.5-1,0.8-2,0.8s-1.4-0.3-2-0.8c-0.7-0.5-1.6-1.2-3.2-1.2s-2.5,0.7-3.2,1.2c-0.6,0.5-1,0.8-2,0.8c-0.9,0-1.4-0.3-2-0.8
		C13.8,59.7,13,59,11.3,59c-1.6,0-2.5,0.7-3.2,1.2c-0.6,0.5-1,0.8-2,0.8c-0.9,0-1.4-0.3-2-0.8C3.5,59.7,2.6,59,1,59v2
		c0.9,0,1.4,0.3,2,0.8C3.7,62.3,4.5,63,6.2,63c1.6,0,2.5-0.7,3.2-1.2c0.6-0.5,1-0.8,2-0.8c0.9,0,1.4,0.3,2,0.8
		c0.7,0.5,1.6,1.2,3.2,1.2c1.6,0,2.5-0.7,3.2-1.2c0.6-0.5,1-0.8,2-0.8s1.4,0.3,2,0.8c0.7,0.5,1.6,1.2,3.2,1.2s2.5-0.7,3.2-1.2
		c0.6-0.5,1-0.8,2-0.8c0.9,0,1.4,0.3,2,0.8c0.7,0.5,1.6,1.2,3.2,1.2s2.5-0.7,3.2-1.2c0.6-0.5,1-0.8,2-0.8c0.9,0,1.4,0.3,2,0.8
		c0.7,0.5,1.6,1.2,3.2,1.2s2.5-0.7,3.2-1.2c0.6-0.5,1-0.8,2-0.8c1,0,1.4,0.3,2,0.8c0.7,0.5,1.6,1.2,3.2,1.2s2.5-0.7,3.2-1.2
		c0.6-0.5,1-0.8,2-0.8v-2c-1.6,0-2.5,0.7-3.2,1.2C59.2,60.7,58.8,61,57.8,61z"/>
	<path d="M57.8,55c-1,0-1.4-0.3-2-0.8c-0.7-0.5-1.6-1.2-3.2-1.2s-2.5,0.7-3.2,1.2c-0.6,0.5-1,0.8-2,0.8c-0.3,0-0.5,0-0.7-0.1L46,51
		h-5H18l-0.8,3.9C17,55,16.8,55,16.5,55c-0.9,0-1.4-0.3-2-0.8C13.8,53.7,13,53,11.3,53c-1.6,0-2.5,0.7-3.2,1.2c-0.6,0.5-1,0.8-2,0.8
		c-0.9,0-1.4-0.3-2-0.8C3.5,53.7,2.6,53,1,53v2c0.9,0,1.4,0.3,2,0.8C3.7,56.3,4.5,57,6.2,57c1.6,0,2.5-0.7,3.2-1.2
		c0.6-0.5,1-0.8,2-0.8c0.9,0,1.4,0.3,2,0.8c0.7,0.5,1.6,1.2,3.2,1.2c1.6,0,2.5-0.7,3.2-1.2c0.6-0.5,1-0.8,2-0.8s1.4,0.3,2,0.8
		c0.7,0.5,1.6,1.2,3.2,1.2s2.5-0.7,3.2-1.2c0.6-0.5,1-0.8,2-0.8c0.9,0,1.4,0.3,2,0.8c0.7,0.5,1.6,1.2,3.2,1.2s2.5-0.7,3.2-1.2
		c0.6-0.5,1-0.8,2-0.8c0.9,0,1.4,0.3,2,0.8c0.7,0.5,1.6,1.2,3.2,1.2s2.5-0.7,3.2-1.2c0.6-0.5,1-0.8,2-0.8c1,0,1.4,0.3,2,0.8
		c0.7,0.5,1.6,1.2,3.2,1.2s2.5-0.7,3.2-1.2c0.6-0.5,1-0.8,2-0.8v-2c-1.6,0-2.5,0.7-3.2,1.2C59.2,54.7,58.8,55,57.8,55z"/>
	<rect x="33" y="31" width="2" height="2"/>
	<rect x="33" y="27" width="2" height="2"/>
	<polygon points="27,25 37,25 37,37 41,37 41,23 23,23 23,37 27,37 	"/>
	<rect x="33" y="35" width="2" height="2"/>
	<rect x="31" y="17" width="2" height="4"/>
	<rect x="23" y="43" width="18" height="2"/>
	<path d="M45.6,49l-0.1-0.4c-0.2-0.9-1-1.6-2-1.6H20.5c-1,0-1.8,0.7-2,1.6L18.4,49H41H45.6z"/>
	<polygon points="39,21 39,13 25,13 25,21 29,21 29,15 35,15 35,21 	"/>
	<rect x="29" y="31" width="2" height="2"/>
	<rect x="29" y="35" width="2" height="2"/>
	<path d="M19.2,41h25.7c-0.4-1.2-1.5-2-2.8-2H22C20.7,39,19.6,39.8,19.2,41z"/>
	<rect x="29" y="27" width="2" height="2"/>
	<polygon points="25,7 29,7 29,11 31,11 31,7 33,7 33,11 35,11 35,7 39,7 39,9 41,9 41,3 39,3 39,5 25,5 25,3 23,3 23,9 25,9 	"/>
	<rect x="18.1" y="10.6" transform="matrix(0.3827 -0.9239 0.9239 0.3827 8.955233e-02 25.4179)" width="2" height="4"/>
	<rect x="16" y="17" width="4" height="2"/>
	<rect x="17.1" y="22.4" transform="matrix(0.9239 -0.3827 0.3827 0.9239 -7.4877 9.0747)" width="4" height="2"/>
	<rect x="43.9" y="21.4" transform="matrix(0.3827 -0.9239 0.9239 0.3827 6.1611 55.9325)" width="2" height="4"/>
	<rect x="44" y="17" width="4" height="2"/>
	<rect x="42.9" y="11.6" transform="matrix(0.9238 -0.3828 0.3828 0.9238 -1.4168 18.164)" width="4" height="2"/>
	<path d="M6.8,41.2C4.4,38.7,3,35.5,3,32c0-3.5,1.4-6.7,3.8-9.2l-1.4-1.4C2.6,24.2,1,28,1,32c0,4,1.6,7.8,4.4,10.6L6.8,41.2z"/>
	<path d="M8.2,39.8l1.4-1.4C7.9,36.7,7,34.4,7,32s0.9-4.7,2.6-6.4l-1.4-1.4C6.1,26.3,5,29.1,5,32S6.1,37.7,8.2,39.8z"/>
	<path d="M11.1,36.9l1.4-1.4C11.5,34.6,11,33.3,11,32c0-1.3,0.5-2.6,1.5-3.5l-1.4-1.4C9.7,28.4,9,30.1,9,32
		C9,33.9,9.7,35.6,11.1,36.9z"/>
	<path d="M57.2,41.2l1.4,1.4C61.4,39.8,63,36,63,32c0-4-1.6-7.8-4.4-10.6l-1.4,1.4c2.5,2.5,3.8,5.7,3.8,9.2
		C61,35.5,59.6,38.7,57.2,41.2z"/>
	<path d="M54.4,38.4l1.4,1.4c2.1-2.1,3.2-4.8,3.2-7.8s-1.1-5.7-3.2-7.8l-1.4,1.4c1.7,1.7,2.6,4,2.6,6.4S56.1,36.7,54.4,38.4z"/>
	<path d="M52.9,36.9c1.3-1.3,2.1-3.1,2.1-4.9c0-1.9-0.7-3.6-2.1-5l-1.4,1.4c0.9,0.9,1.5,2.2,1.5,3.5c0,1.3-0.5,2.6-1.5,3.5
		L52.9,36.9z"/>
</g>
</svg>
