<?xml version="1.0" encoding="utf-8"?>
<!-- Generator: Adobe Illustrator 26.0.1, SVG Export Plug-In . SVG Version: 6.00 Build 0)  -->
<svg version="1.1" id="Layer_1" xmlns="http://www.w3.org/2000/svg" xmlns:xlink="http://www.w3.org/1999/xlink" x="0px" y="0px"
	 viewBox="0 0 100 125" style="enable-background:new 0 0 100 125;" xml:space="preserve">
<g>
	<path d="M79.4,90H58.1c-1.2,0-2.1-1.1-2.1-2.4V63.4H44v24.3c0,1.3-0.9,2.4-2.1,2.4H20.6c-1.2,0-2.1-1.1-2.1-2.4v-41h-6.4
		c-0.9,0-1.7-0.7-2-1.6c-0.3-1,0-2,0.7-2.6l37.9-31.9c0.7-0.6,1.7-0.6,2.5,0L64,21.2v-1.7c0-1.3,0.9-2.4,2.1-2.4h9.5
		c1.2,0,2.1,1.1,2.1,2.4v13.2l11.5,9.7c0.7,0.6,1,1.7,0.7,2.6c-0.3,1-1.1,1.6-2,1.6h-6.4v41C81.5,88.9,80.6,90,79.4,90z M60.1,85.3
		h17.2v-41c0-1.3,0.9-2.4,2.1-2.4h2.2l-7.3-6.2c-0.5-0.4-0.8-1.2-0.8-1.9v-12h-5.3v4.1c0,0.9-0.4,1.7-1.1,2.1
		c-0.7,0.4-1.5,0.3-2.2-0.2L50,15.3L18.4,41.9h2.2c1.2,0,2.1,1.1,2.1,2.4v41h17.2V61c0-1.3,0.9-2.4,2.1-2.4h16.1
		c1.2,0,2.1,1.1,2.1,2.4L60.1,85.3L60.1,85.3z"/>
</g>
</svg>
