<?xml version="1.0" encoding="utf-8"?>
<!-- Generator: Adobe Illustrator 26.0.1, SVG Export Plug-In . SVG Version: 6.00 Build 0)  -->
<svg version="1.1" id="Layer_1" xmlns="http://www.w3.org/2000/svg" xmlns:xlink="http://www.w3.org/1999/xlink" x="0px" y="0px"
	 viewBox="0 0 66 82.5" style="enable-background:new 0 0 66 82.5;" xml:space="preserve">
<g>
	<path d="M4.2,35.5L2.1,64c0,0.3,0.1,0.5,0.3,0.7C2.6,64.9,2.8,65,3.1,65h15.4c0.3,0,0.5-0.1,0.7-0.3c0.2-0.2,0.3-0.5,0.3-0.7
		l-2-28.5C17.5,35.5,4.2,35.5,4.2,35.5z"/>
	<polygon points="17,29 4.6,29 4.3,33.6 17.3,33.6 	"/>
	<path d="M16.2,17.4c0-0.5-0.5-0.9-1-0.9H6.4c-0.5,0-0.9,0.4-1,0.9l-0.7,9.7h12.1L16.2,17.4z"/>
	<path d="M7.3,14c0.5,0,1-0.4,1-1c0-1.9,1.5-4.3,3.1-4.4c0.1,0,0.1,0,0.2,0l6.6-1.4C20.9,7,23,4.7,23,2c0-0.5-0.4-1-1-1
		c-0.5,0-1,0.4-1,1c0,1.8-1.4,3.2-3.1,3.3c0,0-0.1,0-0.2,0l-6.6,1.4C8.5,6.9,6.3,10.2,6.3,13C6.3,13.6,6.8,14,7.3,14z"/>
	<path d="M12,15.4c0,0.5,0.4,1,1,1c0.5,0,1-0.4,1-1c0-1.8,1.4-3.2,3.1-3.3l6.6-0.3c2.8-0.1,5-2.4,5-5.2c0-0.5-0.4-1-1-1
		c-0.5,0-1,0.4-1,1c0,1.8-1.4,3.2-3.1,3.3L17,10.2C14.2,10.4,12,12.7,12,15.4z"/>
	<path d="M63.6,28.1L63.5,28c-0.3-0.3-0.8-0.3-1.2,0l-13.8,9.6v-8.8c0-0.4-0.2-0.7-0.5-0.8c-0.3-0.2-0.7-0.1-1,0.1l-13.8,9.6v-8.8
		c0-0.4-0.2-0.7-0.5-0.9c-0.3-0.2-0.7-0.1-1,0.1l-12.2,8.8L21.4,64c0,0.4,0,0.8-0.2,1.2h41.6c0.5,0,1-0.4,1-1V28.7
		C63.9,28.5,63.8,28.2,63.6,28.1z M34.5,54.3c0,0.5-0.4,1-1,1H25c-0.5,0-1-0.4-1-1v-6.6c0-0.5,0.4-1,1-1h8.5c0.5,0,1,0.4,1,1V54.3z
		 M47.2,54.3c0,0.5-0.4,1-1,1h-8.5c-0.5,0-1-0.4-1-1v-6.6c0-0.5,0.4-1,1-1h8.5c0.5,0,1,0.4,1,1V54.3z M59.9,54.3c0,0.5-0.4,1-1,1
		h-8.5c-0.5,0-1-0.4-1-1v-6.6c0-0.5,0.4-1,1-1h8.5c0.5,0,1,0.4,1,1V54.3z"/>
</g>
</svg>
