<?xml version="1.0" encoding="utf-8"?>
<!-- Generator: Adobe Illustrator 26.0.1, SVG Export Plug-In . SVG Version: 6.00 Build 0)  -->
<svg version="1.1" id="Layer_1" xmlns="http://www.w3.org/2000/svg" xmlns:xlink="http://www.w3.org/1999/xlink" x="0px" y="0px"
	 viewBox="0 0 64 80" style="enable-background:new 0 0 64 80;" xml:space="preserve">
<path d="M32,39.9c-7.1,0-12.8,4.7-12.8,10.4S24.9,60.6,32,60.6S44.8,56,44.8,50.2S39.1,39.9,32,39.9L32,39.9z M32,59.3
	c-6.2,0-11.2-4.1-11.2-9.1c0-5,5-9.1,11.2-9.1s11.2,4.1,11.2,9.1l0,0C43.2,55.3,38.2,59.3,32,59.3z"/>
<path d="M22,64.2c-1.5,0-2.8,1-2.8,2.3c0,1.2,1.3,2.3,2.8,2.2c1.5,0,2.8-1,2.8-2.3C24.8,65.2,23.5,64.2,22,64.2
	C22,64.2,22,64.2,22,64.2z M22,67.5c-0.7,0-1.2-0.5-1.2-1c0-0.5,0.6-1,1.2-1c0.7,0,1.2,0.4,1.2,1C23.2,67,22.7,67.5,22,67.5
	C22,67.5,22,67.5,22,67.5L22,67.5z"/>
<path d="M42,64.2c-1.5,0-2.8,1-2.8,2.3c0,1.2,1.3,2.3,2.8,2.3c1.5,0,2.8-1,2.8-2.3v0C44.8,65.2,43.6,64.2,42,64.2z M42,67.5
	c-0.7,0-1.2-0.4-1.2-1s0.5-1,1.2-1c0.7,0,1.2,0.4,1.2,1v0C43.3,67,42.7,67.5,42,67.5C42.1,67.5,42,67.5,42,67.5L42,67.5z"/>
<path d="M35,65.8h-6c-0.4,0-0.8,0.3-0.8,0.6s0.4,0.6,0.8,0.6h6c0.4,0,0.8-0.3,0.8-0.6S35.4,65.8,35,65.8z"/>
<path d="M63.3,32.9l-4.5-12.1c-0.1-0.1-0.2-0.3-0.3-0.3c0.2-0.3,0.3-0.7,0.3-1.1v-3.3c0-1.2-1.3-2.3-2.8-2.3h-1.2v-2.6
	c0-1.2-1.2-2.3-2.7-2.3c0,0,0,0,0,0H12c-1.5,0-2.8,1-2.8,2.3l0,0v2.6H8c-1.5,0-2.8,1-2.8,2.3l0,0v3.3c0,0.4,0.2,0.8,0.4,1.1
	c-0.2,0.1-0.3,0.2-0.3,0.3L0.7,32.8c-0.8,2,0.5,4.2,3,4.9c0.5,0.1,1,0.2,1.6,0.2h3.8v31.8C9.2,71,10.4,72,12,72h40.1
	c1.5,0,2.8-1,2.8-2.3V37.9h3.8c2.6,0,4.8-1.7,4.8-3.8C63.5,33.7,63.4,33.3,63.3,32.9L63.3,32.9z M10.8,11.3c0-0.5,0.5-1,1.2-1l0,0
	H52c0.7,0,1.2,0.4,1.2,1v2.6H10.8V11.3z M6.7,16.1c0-0.5,0.5-1,1.2-1l0,0h48.1c0.7,0,1.2,0.4,1.2,1v3.3c0,0.2-0.1,0.4-0.2,0.5l0,0
	c-0.2,0.3-0.6,0.4-1,0.4H8c-0.4,0-0.7-0.1-1-0.4c-0.2-0.2-0.2-0.4-0.3-0.6V16.1z M53.5,36c-0.3,0.4-0.9,0.6-1.4,0.6h-4.9
	c0.6-1.1,0.9-2.4,0.6-3.6l-2.1-11.3h5.3l3.2,11.6C54.4,34.2,54.2,35.2,53.5,36z M26.2,36.6c-0.4-1.1-0.5-2.3-0.4-3.5l1-11.5h4.4v15
	H26.2z M10.5,36c-0.8-0.8-1-1.8-0.7-2.8L13,21.6h5.3L16.2,33c-0.2,1.3,0,2.5,0.7,3.7H12C11.4,36.6,10.9,36.4,10.5,36L10.5,36z
	 M18.6,36.5c-0.7-1-1-2.1-0.7-3.3l2.1-11.5h5.3l-1,11.4c-0.1,1.2,0,2.4,0.3,3.6h-5.6C18.8,36.6,18.6,36.5,18.6,36.5L18.6,36.5z
	 M32.8,21.7h4.4l1,11.5c0.1,1.2,0,2.4-0.4,3.5h-5L32.8,21.7z M39.8,33.1l-1-11.4h5.3l2.1,11.6c0.3,1.1,0,2.3-0.7,3.3
	c-0.1,0.1-0.2,0.2-0.4,0.2h-5.7C39.8,35.5,39.9,34.3,39.8,33.1L39.8,33.1z M2.8,35.6C2.2,35,2,34.1,2.3,33.3l4.3-11.6h4.8L8.2,33
	c-0.3,1.3,0,2.6,1,3.6H5.3C4.3,36.6,3.3,36.2,2.8,35.6L2.8,35.6z M53.3,69.7c0,0.5-0.5,1-1.2,1H12c-0.7,0-1.2-0.4-1.2-1V37.9h42.5
	V69.7z M61.2,35.6c-0.6,0.7-1.6,1-2.6,1h-3.8c0.9-1.1,1.2-2.4,0.9-3.7l-3.2-11.3h4.9l4.3,11.6C62,34,61.9,34.9,61.2,35.6L61.2,35.6z
	"/>
<path d="M32.8,49.2V46c0.8,0,1.6,0.2,2.3,0.6l0.6-1.3c-0.9-0.4-1.9-0.6-2.9-0.6v-1.5h-1.6v1.6c-1.7,0.3-2.9,1.4-3,2.9
	c0,1.2,1,2.1,3,2.8v3.5c-1-0.1-1.9-0.3-2.8-0.7l-0.6,1.4c1,0.4,2.2,0.7,3.3,0.7v2h1.6v-2.1c1.9-0.1,3.3-1.4,3.3-2.9
	C36.1,50.8,35,49.8,32.8,49.2z M31.3,48.5c-0.7-0.4-1-1.2-0.5-1.8c0.1-0.2,0.3-0.3,0.5-0.4V48.5z M32.8,53.7V51
	c0.7,0.3,1.1,0.8,1.1,1.4C33.9,53,33.5,53.5,32.8,53.7L32.8,53.7z"/>
</svg>
